<svg viewBox="0 0 500 500" width="500" height="500" xmlns="http://www.w3.org/2000/svg" xmlns:bx="https://boxy-svg.com">
  <ellipse style="stroke-width: 14px; fill: none; stroke: rgb(10, 180, 214);" cx="249.622" cy="213.403" rx="235.139" ry="135.927"/>
  <path d="M 185.443 174.852 H 449.155 L 449.155 174.852 L 450.153 185.3285 L 449.155 195.805 L 449.155 195.805 H 185.443 V 174.852 Z" style="stroke-width: 4px; fill: rgb(10, 180, 214); stroke: rgb(10, 180, 214);" transform="matrix(0.776013, 0.630717, -0.630717, 0.776013, 168.787598, -112.372253)" bx:shape="arrow 185.443 174.852 264.71 20.953 20.953 0.998 0 1@dd4809c8"/>
  <path d="M 189.362 180.235 H 439.933 L 439.933 180.235 L 440.93 191.034 L 439.933 201.833 L 439.933 201.833 H 189.362 V 180.235 Z" style="stroke-width: 4px; fill: rgb(10, 180, 214); stroke: rgb(10, 180, 214);" transform="matrix(0.708842, 0.705368, -0.705368, 0.708842, 83.563377, -86.4851)" bx:shape="arrow 189.362 180.235 251.568 21.598 21.598 0.997 0 1@f21183f4"/>
  <path d="M 179.319 174.852 H 512.715 L 512.715 174.852 L 513.713 185.329 L 512.715 195.805 L 512.715 195.805 H 179.319 V 174.852 Z" style="stroke-width: 4px; fill: rgb(10, 180, 214); stroke: rgb(10, 180, 214);" transform="matrix(0.92538, -0.37904, 0.37904, 0.92538, -192.478912, 182.114639)" bx:shape="arrow 179.319 174.852 334.393 20.953 20.953 0.998 0 1@e13d0b48"/>
  <path d="M 114.745 174.852 H 470.208 L 470.208 174.852 L 471.206 185.329 L 470.208 195.805 L 470.208 195.805 H 114.745 V 174.852 Z" style="stroke-width: 4px; fill: rgb(10, 180, 214); stroke: rgb(10, 180, 214);" transform="matrix(0.926947, -0.375193, 0.375193, 0.926947, -57.889843, 211.102798)" bx:shape="arrow 114.745 174.852 356.461 20.953 20.953 0.998 0 1@be34b272"/>
  <ellipse style="stroke-width: 14px; fill: none; stroke: rgb(10, 180, 214);" cx="249.252" cy="283.023" rx="235.139" ry="135.927"/>
  <path d="M 283.562 180.235 H 359.612 L 359.612 180.235 L 360.609 191.034 L 359.612 201.833 L 359.612 201.833 H 283.562 V 180.235 Z" style="stroke-width: 4px; fill: rgb(10, 180, 214); stroke: rgb(10, 180, 214);" transform="matrix(0, 1, -1, 0, 211.138763, -72.218109)" bx:shape="arrow 283.562 180.235 77.047 21.598 21.598 0.997 0 1@fa299cab"/>
  <path d="M 283.562 180.235 H 359.612 L 359.612 180.235 L 360.609 191.034 L 359.612 201.833 L 359.612 201.833 H 283.562 V 180.235 Z" style="stroke-width: 4px; fill: rgb(10, 180, 214); stroke: rgb(10, 180, 214);" transform="matrix(0, 1, -1, 0, 669.266541, -73.515686)" bx:shape="arrow 283.562 180.235 77.047 21.598 21.598 0.997 0 1@fa299cab"/>
  <path stroke-width="0" d="M 261.187 75.292 C 280.066 76.52 302.458 80.356 321.225 84.15 C 338.71 87.684 353.392 90.327 370.436 96.945 C 389.485 104.34 423.154 121.171 429.982 127.948 C 432.697 130.643 429.933 131.853 431.951 134.345 C 435.628 138.89 448.686 143.639 456.556 151.569 C 465.88 160.964 479.211 178.591 483.131 188.97 C 485.87 196.223 485.342 202.599 484.115 207.671 C 483.083 211.937 480.991 215.776 477.717 218.005 C 474.151 220.433 469.323 222.75 462.954 220.958 C 452.267 217.95 435.396 196.771 418.664 188.478 C 401.139 179.793 386.005 172.993 371.421 166.825 C 360.885 162.369 344.856 159.495 335.988 156.983 C 326.603 154.324 313.816 153.223 304.493 152.061 C 296.387 151.051 290.719 148.129 280.872 147.14 C 265.929 145.64 238.303 150.867 219.849 151.077 C 204.254 151.255 191.696 148.698 178.511 152.062 C 165.101 155.483 149.579 157.809 136.189 161.904 C 122.989 165.942 111.843 172.128 98.789 176.667 C 85.394 181.325 67.883 194.158 60.896 199.797 C 57.082 202.874 56.51 205.506 54.498 207.178 C 52.951 208.465 51.714 208.016 50.069 209.639 C 47.397 212.276 44.688 221.081 40.719 223.91 C 37.145 226.458 31.828 227.495 27.924 226.863 C 24.139 226.25 19.804 223.499 17.59 220.466 C 15.374 217.43 14.175 213.23 14.637 208.655 C 15.227 202.807 22.57 193.329 23.495 187.986 C 24.134 184.296 21.301 183.218 22.511 179.128 C 24.727 171.631 36.713 153.633 44.656 145.172 C 51.315 138.079 60.893 134.527 65.817 129.916 C 69.415 126.546 68.288 124.084 73.199 120.566 C 82.597 113.834 110.493 102.474 128.316 95.96 C 144.866 89.912 161.842 85.524 176.543 82.181 C 189.406 79.256 198.922 77.457 211.975 76.276 C 226.781 74.935 243.824 74.162 261.187 75.292 Z" style="stroke-width: 2px; fill: rgb(10, 180, 214); stroke: rgb(10, 180, 214);"/>
  <path stroke-width="0" d="M 20.402 265.123 C 23.189 264.569 26.987 264.501 30.039 265.659 C 33.351 266.915 37.043 269.891 39.409 272.887 C 41.768 275.874 43.331 279.8 44.228 283.596 C 44.628 285.287 44.584 287.055 44.493 288.858 C 45.02 288.935 45.555 289.053 46.102 289.218 C 49.156 290.138 54.314 293.886 56.008 295.375 C 56.893 296.154 56.185 296.29 57.346 297.249 C 60.692 300.011 75.335 309.396 85.189 313.847 C 87.226 314.767 89.394 315.573 91.628 316.306 C 97.686 320.91 112.299 327.904 123.74 332.052 C 137.242 336.948 153.645 340.532 168.716 342.761 C 173.251 343.432 178.259 344.011 183.315 344.471 C 188.11 346.102 193.375 347.671 199.235 348.65 C 218.996 351.953 252.062 354.597 275.266 353.469 C 296.086 352.458 317.537 347.126 332.557 343.832 C 343.001 341.541 350.216 339.704 357.723 336.939 C 362.052 336.514 366.845 335.373 370.037 334.194 C 374.115 332.687 375.795 329.419 379.675 327.769 C 384.144 325.868 390.499 326.077 395.738 324.021 C 401.218 321.87 408.76 317.313 411.8 314.918 C 413.538 313.55 412.7 313.213 414.745 311.438 C 419.637 307.192 442.227 292.828 447.674 288.147 C 450.228 285.952 449.402 285.527 451.69 283.596 C 455.367 280.492 465.755 275.189 471.284 270.759 C 472.751 270.775 474.018 271.121 475.516 271.549 C 478.405 272.375 481.798 274.388 483.816 276.635 C 485.759 278.8 486.883 281.445 487.564 284.667 C 488.379 288.526 489.559 292.787 487.564 298.588 C 484.414 307.744 468.933 328.041 463.202 334.729 C 460.086 338.365 458.707 337.897 455.973 340.887 C 452.08 345.144 449.674 353.064 442.32 359.359 C 431.807 368.358 404.776 382.619 393.596 387.201 C 387.034 389.891 383.65 388.773 379.139 390.414 C 374.742 392.014 373.167 394.537 366.824 396.839 C 355.852 400.821 323.992 408.739 313.817 410.225 C 308.735 410.967 308.245 409.344 304.179 410.225 C 298.939 411.359 291.954 416.539 284.082 418.991 C 277.693 419.206 270.436 419.539 266.164 420.398 C 265.189 420.594 264.401 420.864 263.709 421.165 C 254.775 421.259 245.772 420.687 241.534 419.862 C 237.885 419.152 238.084 417.284 235.109 416.65 C 230.794 415.73 223.357 417.558 216.904 416.65 C 209.708 415.637 202.989 411.601 193.881 410.225 C 186.453 409.102 175.891 409.869 166.529 409.782 C 165.217 409.416 163.971 409.03 162.826 408.618 C 155.635 406.032 151.348 402.288 143.55 399.516 C 133.882 396.079 121.922 396.016 108.212 390.414 C 102.942 388.261 96.398 385.325 89.439 381.957 C 85.406 378.88 82.068 375.948 80.637 374.619 C 79.58 373.636 80.435 373.717 79.299 372.745 C 76.083 369.994 61.435 362.106 53.063 356.146 C 50.279 354.164 47.118 351.892 44.001 349.573 C 39.72 340.443 33.203 328.334 28.126 320.33 C 28.514 319.798 28.929 319.267 29.33 318.739 C 25.601 312.166 21.637 303.075 19.599 295.911 C 16.914 286.472 17.922 272.81 16.523 266.492 C 17.709 265.847 18.996 265.403 20.402 265.123 Z" style="stroke-width: 2px; stroke: rgb(10, 180, 214); fill: rgb(10, 180, 214);"/>
</svg>